<svg version="1.1" xmlns="http://www.w3.org/2000/svg" xmlns:xlink="http://www.w3.org/1999/xlink" width="5" height="5" viewBox="0,0,5,5"><g transform="translate(-237.5,-177.5)"><g data-paper-data="{&quot;isPaintingLayer&quot;:true}" fill-rule="nonzero" stroke="none" stroke-width="0.5" stroke-linecap="butt" stroke-linejoin="miter" stroke-miterlimit="10" stroke-dasharray="" stroke-dashoffset="0" style="mix-blend-mode: normal"><path d="M237.5,180c0,-1.38071 1.11929,-2.5 2.5,-2.5c1.38071,0 2.5,1.11929 2.5,2.5c0,1.38071 -1.11929,2.5 -2.5,2.5c-1.38071,0 -2.5,-1.11929 -2.5,-2.5z" fill="#9966ff"/><path d="M238.55264,179.31215c0,-0.13807 0.11193,-0.25 0.25,-0.25c0.13807,0 0.25,0.11193 0.25,0.25c0,0.13807 -0.11193,0.25 -0.25,0.25c-0.13807,0 -0.25,-0.11193 -0.25,-0.25z" fill="#000000"/><path d="M240.3142,179.58127c0,-0.13807 0.11193,-0.25 0.25,-0.25c0.13807,0 0.25,0.11193 0.25,0.25c0,0.13807 -0.11193,0.25 -0.25,0.25c-0.13807,0 -0.25,-0.11193 -0.25,-0.25z" fill="#000000"/><path d="M241.54851,180.24935c0.23717,0.07906 0.15811,0.31623 0.15811,0.31623l-0.06756,0.18915c-0.8561,1.52289 -2.38614,0.93492 -3.25183,-0.1365c0,0 -0.15617,-0.19522 0.03904,-0.35139c0.19522,-0.15617 0.35139,0.03904 0.35139,0.03904c0.63223,0.79695 1.76342,1.41323 2.42432,0.20603l0.0303,-0.10444c0,0 0.07906,-0.23717 0.31623,-0.15811z" fill="#000000"/><path d="M239.53129,180.16846c0,-0.13807 0.11193,-0.25 0.25,-0.25c0.13807,0 0.25,0.11193 0.25,0.25c0,0.13807 -0.11193,0.25 -0.25,0.25c-0.13807,0 -0.25,-0.11193 -0.25,-0.25z" fill="#000000"/></g></g></svg>